<?xml version="1.0" standalone="no"?><svg xmlns="http://www.w3.org/2000/svg" viewBox="0 0 1440 320"><path fill="#0099ff" fill-opacity="0.5" d="M0,192L26.7,192C53.3,192,107,192,160,202.7C213.3,213,267,235,320,224C373.3,213,427,171,480,165.3C533.3,160,587,192,640,202.7C693.3,213,747,203,800,213.3C853.3,224,907,256,960,256C1013.3,256,1067,224,1120,224C1173.3,224,1227,256,1280,261.3C1333.3,267,1387,245,1413,234.7L1440,224L1440,320L1413.3,320C1386.7,320,1333,320,1280,320C1226.7,320,1173,320,1120,320C1066.7,320,1013,320,960,320C906.7,320,853,320,800,320C746.7,320,693,320,640,320C586.7,320,533,320,480,320C426.7,320,373,320,320,320C266.7,320,213,320,160,320C106.7,320,53,320,27,320L0,320Z"></path></svg>